<svg width="16" height="16" viewBox="0 0 16 16" fill="none" xmlns="http://www.w3.org/2000/svg">
<path d="M14.4422 5.28751C14.0916 4.45084 13.5816 3.69036 12.9406 3.04845C12.3015 2.40544 11.5424 1.8942 10.7063 1.54376C9.84972 1.18303 8.92942 0.998117 8.00002 1.00001H7.96877C7.02345 1.0047 6.10939 1.1922 5.24845 1.56095C4.41951 1.91498 3.66747 2.42713 3.03439 3.06876C2.3996 3.70922 1.89544 4.46705 1.55002 5.30001C1.19145 6.16621 1.00976 7.09537 1.01564 8.03283C1.02033 9.1172 1.2797 10.1938 1.76408 11.1563V13.5313C1.76408 13.9281 2.08595 14.25 2.48127 14.25H4.85314C5.82013 14.738 6.88722 14.9947 7.97033 15H8.00314C8.93752 15 9.8422 14.8188 10.6953 14.4641C11.5272 14.1178 12.2835 13.6125 12.9219 12.9766C13.5656 12.3375 14.0719 11.5906 14.4266 10.7578C14.7938 9.89533 14.9813 8.97814 14.986 8.03126C14.9891 7.0797 14.8047 6.15626 14.4422 5.28751ZM4.88127 8.75001C4.46877 8.75001 4.13283 8.41408 4.13283 8.00001C4.13283 7.58595 4.46877 7.25001 4.88127 7.25001C5.29377 7.25001 5.6297 7.58595 5.6297 8.00001C5.6297 8.41408 5.29533 8.75001 4.88127 8.75001ZM8.00002 8.75001C7.58752 8.75001 7.25158 8.41408 7.25158 8.00001C7.25158 7.58595 7.58752 7.25001 8.00002 7.25001C8.41252 7.25001 8.74845 7.58595 8.74845 8.00001C8.74845 8.41408 8.41252 8.75001 8.00002 8.75001ZM11.1188 8.75001C10.7063 8.75001 10.3703 8.41408 10.3703 8.00001C10.3703 7.58595 10.7063 7.25001 11.1188 7.25001C11.5313 7.25001 11.8672 7.58595 11.8672 8.00001C11.8672 8.41408 11.5313 8.75001 11.1188 8.75001Z" fill="#191919"/>
</svg>
