<svg width="32" height="32" viewBox="0 0 32 32" fill="none" xmlns="http://www.w3.org/2000/svg">
<path fill-rule="evenodd" clip-rule="evenodd" d="M11.6836 3.98741C14.2615 3.06003 17.0702 2.98706 19.6924 3.78037C22.3146 4.57376 24.6118 6.19177 26.2432 8.39268C27.8743 10.5934 28.7534 13.2609 28.75 16.0001V18.0001C28.75 19.0829 28.3194 20.1211 27.5538 20.8868C26.7881 21.6525 25.7499 22.083 24.667 22.0831C23.5841 22.0831 22.5451 21.6526 21.7793 20.8868C21.4046 20.5119 21.1103 20.0717 20.9073 19.5929C20.7245 19.8425 20.5233 20.0804 20.3018 20.3019C19.161 21.4426 17.6134 22.084 16.0001 22.0841C14.387 22.084 12.84 21.4424 11.6993 20.3019C10.5585 19.1611 9.91711 17.6134 9.91704 16.0001C9.91713 14.3868 10.5585 12.8401 11.6993 11.6993C12.84 10.5586 14.3868 9.91718 16.0001 9.91709C17.6134 9.91715 19.161 10.5585 20.3018 11.6993C21.4423 12.84 22.0839 14.387 22.084 16.0001C22.084 16.0125 22.0831 16.0248 22.0831 16.0372V18.0001C22.0831 18.685 22.3557 19.3419 22.8399 19.8263C23.3243 20.3107 23.9819 20.5831 24.667 20.5831C25.3521 20.583 26.0088 20.3107 26.4932 19.8263C26.9776 19.3419 27.25 18.6851 27.25 18.0001V15.9991C27.2531 13.5818 26.4776 11.2273 25.0381 9.28526C23.5987 7.34333 21.5715 5.91693 19.2579 5.2169C16.9441 4.5169 14.466 4.58026 12.1915 5.39854C9.91698 6.21685 7.96644 7.7464 6.62896 9.75987C5.29151 11.7734 4.63815 14.1644 4.76568 16.5782C4.89327 18.9922 5.79566 21.3008 7.33794 23.1622C8.88027 25.0235 10.981 26.3392 13.3292 26.9132C15.6773 27.4871 18.148 27.2888 20.375 26.3487C20.7565 26.1878 21.1963 26.3668 21.3575 26.7481C21.5186 27.1298 21.3397 27.5695 20.9581 27.7306C18.4341 28.7959 15.634 29.0207 12.9727 28.3702C10.3115 27.7197 7.93063 26.2288 6.18267 24.1192C4.43475 22.0097 3.41224 19.3931 3.26763 16.6573C3.12311 13.9216 3.86412 11.2118 5.37993 8.92979C6.89572 6.64797 9.10601 4.91482 11.6836 3.98741ZM16.0001 11.4171C14.7846 11.4172 13.6193 11.9004 12.7598 12.7599C11.9004 13.6193 11.4171 14.7847 11.417 16.0001C11.4171 17.2156 11.9003 18.3818 12.7598 19.2413C13.6192 20.1005 14.7848 20.584 16.0001 20.5841C17.2155 20.584 18.3818 20.1008 19.2413 19.2413C20.092 18.3906 20.5733 17.2393 20.5831 16.0372V15.9874C20.5797 14.7766 20.0975 13.6164 19.2413 12.7599C18.3818 11.9004 17.2155 11.4172 16.0001 11.4171Z" fill="white" fill-opacity="0.6"/>
</svg>
