<svg width="36" height="37" viewBox="0 0 36 37" fill="none" xmlns="http://www.w3.org/2000/svg">
<g filter="url(#filter0_ddi_36_24)">
<path fill-rule="evenodd" clip-rule="evenodd" d="M33.7986 11.7313C30.3355 3.00676 20.4558 -1.25931 11.7314 2.20295C3.0063 5.66523 -1.25935 15.5458 2.20311 24.2703L2.25157 24.3904L2.25976 24.4109L2.26794 24.4299C5.78705 33.0454 15.5992 37.2377 24.2703 33.7973C32.962 30.3474 37.227 20.5242 33.8355 11.8241L33.7986 11.7313ZM15.6039 14.9971L15.6211 14.585L15.6237 14.5413L15.6436 14.1892L15.664 13.8931L15.6668 13.8494L15.7057 13.4031L15.7289 13.182L15.7691 12.8327L15.7726 12.8054L15.8128 12.5065C15.8489 12.2568 15.8898 12.0084 15.937 11.7627C15.9923 11.4775 16.0557 11.1964 16.128 10.9207C16.7252 8.64164 18.0026 6.53863 20.6053 5.42639L20.7991 5.34588C21.0516 5.24353 21.3019 5.15072 21.5489 5.07021C18.8378 4.32371 15.8701 4.4206 13.0545 5.53831C6.17192 8.27045 2.80635 16.063 5.53798 22.9452L5.56733 23.0189L5.57142 23.0298L5.5912 23.0763L5.62806 23.1581L5.69357 23.2973L5.80002 23.5101L5.9017 23.7053L6.03545 23.9496L6.12278 24.1024C6.27496 24.3645 6.45306 24.6498 6.65711 24.943C6.97578 25.4016 7.35588 25.8779 7.79329 26.3105L7.92909 26.4415C8.32147 26.8115 8.73772 27.1253 9.17447 27.3613C9.49859 27.5375 9.83364 27.6711 10.1796 27.7544L10.3359 27.7885C11.1343 27.9441 12.1313 27.8635 13.3882 27.2017C14.4043 26.6668 15.0076 25.6895 15.3262 24.026C15.5555 22.8291 15.6039 21.448 15.6019 19.906L15.6006 19.749H9.11168V16.1761H15.5787C15.5822 15.7859 15.5896 15.3915 15.6039 14.9971ZM18.8502 24.7016C19.1484 23.143 19.1961 21.4126 19.1913 19.749H24.0915C25.6803 19.749 26.968 18.4608 26.968 16.8721V16.1761H19.1674C19.1818 14.5249 19.2752 13.0619 19.5987 11.8296C19.6732 11.5458 19.7578 11.2796 19.8546 11.0326C19.9699 10.7379 20.1016 10.469 20.2538 10.2233C20.6708 9.55055 21.2378 9.05925 22.0151 8.72626C22.9485 8.3264 23.7614 8.17082 24.4711 8.16946L24.6178 8.17219H24.6524L24.7726 8.17764C24.9405 8.18857 25.1029 8.20767 25.2585 8.2336L25.3745 8.25544L25.5376 8.29092L25.5573 8.29502L25.6707 8.32368C26.6526 8.58297 27.5165 9.15615 28.261 9.88354C28.6138 10.2274 28.9278 10.5959 29.2013 10.9589C29.5056 11.3615 29.7609 11.7573 29.965 12.108C30.1567 12.4369 30.2986 12.7153 30.3895 12.9064L30.4877 13.1193L30.4993 13.1465C33.1655 20.0055 29.7991 27.7435 22.9465 30.462C22.5187 30.6313 22.0873 30.7772 21.6542 30.9C20.4639 31.2399 19.2575 31.405 18.0653 31.4104C16.7088 31.4174 15.3699 31.2154 14.0925 30.825C14.4125 30.6967 14.7353 30.5479 15.0601 30.3774C17.4273 29.1315 18.4249 26.9193 18.8502 24.7016Z" fill="#E8E5E1" fill-opacity="0.8" shape-rendering="crispEdges"/>
</g>
<defs>
<filter id="filter0_ddi_36_24" x="0" y="0" width="36" height="37" filterUnits="userSpaceOnUse" color-interpolation-filters="sRGB">
<feFlood flood-opacity="0" result="BackgroundImageFix"/>
<feColorMatrix in="SourceAlpha" type="matrix" values="0 0 0 0 0 0 0 0 0 0 0 0 0 0 0 0 0 0 127 0" result="hardAlpha"/>
<feOffset dy="-0.5"/>
<feGaussianBlur stdDeviation="0.25"/>
<feComposite in2="hardAlpha" operator="out"/>
<feColorMatrix type="matrix" values="0 0 0 0 0 0 0 0 0 0 0 0 0 0 0 0 0 0 1 0"/>
<feBlend mode="normal" in2="BackgroundImageFix" result="effect1_dropShadow_36_24"/>
<feColorMatrix in="SourceAlpha" type="matrix" values="0 0 0 0 0 0 0 0 0 0 0 0 0 0 0 0 0 0 127 0" result="hardAlpha"/>
<feOffset dy="1"/>
<feGaussianBlur stdDeviation="0.5"/>
<feComposite in2="hardAlpha" operator="out"/>
<feColorMatrix type="matrix" values="0 0 0 0 1 0 0 0 0 1 0 0 0 0 1 0 0 0 0.25 0"/>
<feBlend mode="normal" in2="effect1_dropShadow_36_24" result="effect2_dropShadow_36_24"/>
<feBlend mode="normal" in="SourceGraphic" in2="effect2_dropShadow_36_24" result="shape"/>
<feColorMatrix in="SourceAlpha" type="matrix" values="0 0 0 0 0 0 0 0 0 0 0 0 0 0 0 0 0 0 127 0" result="hardAlpha"/>
<feOffset dy="1"/>
<feGaussianBlur stdDeviation="0.5"/>
<feComposite in2="hardAlpha" operator="arithmetic" k2="-1" k3="1"/>
<feColorMatrix type="matrix" values="0 0 0 0 0 0 0 0 0 0 0 0 0 0 0 0 0 0 0.45 0"/>
<feBlend mode="normal" in2="shape" result="effect3_innerShadow_36_24"/>
</filter>
</defs>
</svg>
