<svg width="28" height="36" viewBox="0 0 28 36" fill="none" xmlns="http://www.w3.org/2000/svg">
<path opacity="0.7" d="M14 36C12.0522 36 10.2261 35.5453 8.52174 34.636C6.81739 33.6942 5.31594 32.4114 4.01739 30.7876C2.75942 29.1637 1.76522 27.2639 1.03478 25.088C0.344927 22.8796 0 20.5088 0 17.9756C0 15.4425 0.344927 13.088 1.03478 10.912C1.76522 8.73613 2.75942 6.83627 4.01739 5.21245C5.31594 3.55616 6.81739 2.27334 8.52174 1.36401C10.2261 0.454668 12.0522 0 14 0C15.9478 0 17.7536 0.454668 19.4174 1.36401C21.1217 2.27334 22.6232 3.55616 23.9217 5.21245C25.2203 6.83627 26.2145 8.73613 26.9043 10.912C27.6348 13.088 28 15.4425 28 17.9756C28 20.5088 27.6348 22.8796 26.9043 25.088C26.2145 27.2639 25.2203 29.1637 23.9217 30.7876C22.6232 32.4114 21.1217 33.6942 19.4174 34.636C17.7536 35.5453 15.9478 36 14 36ZM14 32.6847C16.8812 32.6847 19.1333 31.3045 20.7565 28.544C22.3797 25.7835 26.1913 23.594 26.1913 17.9756C26.1913 12.3572 22.3797 10.184 20.7565 7.45602C19.1333 4.69553 16.8812 3.31529 14 3.31529C11.1594 3.31529 8.90725 4.69553 7.24348 7.45602C5.62029 10.184 1.8087 12.3572 1.8087 17.9756C1.8087 23.594 5.62029 25.7835 7.24348 28.544C8.90725 31.3045 11.1594 32.6847 14 32.6847Z" fill="white"/>
</svg>
