<svg width="24" height="17" viewBox="0 0 24 17" fill="none" xmlns="http://www.w3.org/2000/svg">
<path d="M22.29 3.17C22.1651 2.70228 21.9198 2.27547 21.5785 1.9321C21.2372 1.58873 20.8119 1.34079 20.345 1.213C18.63 0.75 11.75 0.75 11.75 0.75C11.75 0.75 4.87 0.75 3.155 1.213C2.68806 1.34079 2.26276 1.58873 1.9215 1.9321C1.58023 2.27547 1.33492 2.70228 1.21 3.17C0.75 4.898 0.75 8.5 0.75 8.5C0.75 8.5 0.75 12.102 1.21 13.83C1.33476 14.2979 1.58001 14.7249 1.92129 15.0685C2.26256 15.412 2.68794 15.6601 3.155 15.788C4.871 16.25 11.75 16.25 11.75 16.25C11.75 16.25 18.63 16.25 20.345 15.788C20.8121 15.6601 21.2374 15.412 21.5787 15.0685C21.92 14.7249 22.1652 14.2979 22.29 13.83C22.75 12.104 22.75 8.5 22.75 8.5C22.75 8.5 22.75 4.898 22.29 3.17ZM9.5 11.771V5.23L15.25 8.501L9.5 11.771Z" stroke="#1A1A1A" stroke-opacity="0.6" stroke-width="1.5" stroke-linejoin="round"/>
</svg>
