<svg width="24" height="24" viewBox="0 0 24 24" fill="none" xmlns="http://www.w3.org/2000/svg">
<path d="M10.6274 11.07C9.85865 10.9612 8.10552 11.1403 7.24677 12.7294C6.38802 14.3184 7.25333 15.9722 7.79427 16.6003C8.32771 17.1881 10.0236 18.3009 11.8227 17.2144C12.0022 17.1062 12.1994 17.0089 12.412 16.7943C13.5392 15.657 13.4477 13.8248 13.4336 12.2237L13.3818 6.35718C13.2599 7.26937 14.2677 9.40874 17.1355 9.66187" stroke="white" stroke-opacity="0.6" stroke-width="1.5" stroke-linecap="round" stroke-linejoin="round"/>
<path d="M3 16V8C3 6.67392 3.52678 5.40215 4.46447 4.46447C5.40215 3.52678 6.67392 3 8 3H16C17.3261 3 18.5979 3.52678 19.5355 4.46447C20.4732 5.40215 21 6.67392 21 8V16C21 17.3261 20.4732 18.5979 19.5355 19.5355C18.5979 20.4732 17.3261 21 16 21H8C6.67392 21 5.40215 20.4732 4.46447 19.5355C3.52678 18.5979 3 17.3261 3 16Z" stroke="white" stroke-opacity="0.6" stroke-width="1.5"/>
</svg>
