<svg width="24" height="24" viewBox="0 0 24 24" fill="none" xmlns="http://www.w3.org/2000/svg">
<path d="M10.6274 11.0702C9.85865 10.9615 8.10552 11.1405 7.24677 12.7296C6.38802 14.3187 7.25333 15.9724 7.79427 16.6005C8.32771 17.1884 10.0236 18.3012 11.8227 17.2146C12.0022 17.1064 12.1994 17.0091 12.412 16.7946C13.5392 15.6573 13.4477 13.8251 13.4336 12.2239L13.3818 6.35742C13.2599 7.26961 14.2677 9.40898 17.1355 9.66211" stroke="#1A1A1A" stroke-opacity="0.6" stroke-width="1.5" stroke-linecap="round" stroke-linejoin="round"/>
<path d="M3 16V8C3 6.67392 3.52678 5.40215 4.46447 4.46447C5.40215 3.52678 6.67392 3 8 3H16C17.3261 3 18.5979 3.52678 19.5355 4.46447C20.4732 5.40215 21 6.67392 21 8V16C21 17.3261 20.4732 18.5979 19.5355 19.5355C18.5979 20.4732 17.3261 21 16 21H8C6.67392 21 5.40215 20.4732 4.46447 19.5355C3.52678 18.5979 3 17.3261 3 16Z" stroke="#1A1A1A" stroke-opacity="0.6" stroke-width="1.5"/>
</svg>
