<svg width="22" height="21" viewBox="0 0 22 21" fill="none" xmlns="http://www.w3.org/2000/svg">
<path d="M2.75 4.75C3.85457 4.75 4.75 3.85457 4.75 2.75C4.75 1.64543 3.85457 0.75 2.75 0.75C1.64543 0.75 0.75 1.64543 0.75 2.75C0.75 3.85457 1.64543 4.75 2.75 4.75Z" stroke="#1A1A1A" stroke-opacity="0.6" stroke-width="1.5" stroke-linecap="round" stroke-linejoin="round"/>
<path d="M0.75 7.75H4.75V19.75H0.75V7.75ZM20.75 19.75H16.75V12.75C16.75 12.2196 16.5393 11.7109 16.1642 11.3358C15.7891 10.9607 15.2804 10.75 14.75 10.75C14.2196 10.75 13.7109 10.9607 13.3358 11.3358C12.9607 11.7109 12.75 12.2196 12.75 12.75V19.75H8.75V12.75C8.75 11.1587 9.38214 9.63258 10.5074 8.50736C11.6326 7.38214 13.1587 6.75 14.75 6.75C16.3413 6.75 17.8674 7.38214 18.9926 8.50736C20.1179 9.63258 20.75 11.1587 20.75 12.75V19.75Z" stroke="#1A1A1A" stroke-opacity="0.6" stroke-width="1.5" stroke-linecap="round" stroke-linejoin="round"/>
</svg>
